<?xml version="1.0" encoding="UTF-8" standalone="no"?><svg xmlns:svg="http://www.w3.org/2000/svg" xmlns="http://www.w3.org/2000/svg" version="1.1" style="overflow:visible" viewBox="-250 -250 500 500" height="500px" width="500px"><rect fill-opacity="0" fill="rgb(0,0,0)" height="500" width="500" y="-250" x="-250" /><svg version="1.1" y="-250" x="-250" viewBox="-250 -250 500 500" height="500px" width="500px" style="overflow:visible"><g transform="rotate(0,0,0)" stroke-linejoin="round" fill="#fff"><path stroke-linecap="butt" stroke-linejoin="round" stroke="none" fill="rgb(251,204,234)" d="m0-157.07c-52.7032 89.90619-100.005 158.9006-100.005 214.135c0 55.23101 44.773989 100.005 100.005 100.005s100.005-44.77399 100.005-100.005s-47.3018-124.2322-100.005-214.135z" /><path stroke-linecap="butt" stroke-linejoin="round" stroke="none" fill="rgb(255,255,255)" d="m8.757499-75.2919a17.84835 17.72405 0 0 1-17.84835 17.72292a17.84835 17.72405 0 0 1-17.84835-17.72292a17.84835 17.72405 0 0 1 17.84835-17.72405a17.84835 17.72405 0 0 1 17.84835 17.72405z" /><path stroke-linecap="butt" stroke-linejoin="round" stroke="none" fill="rgb(255,255,255)" d="m-26.2612-48.9742a15.821129 15.821129 0 0 0-16.83248 8.304369c-12.85262 23.994419-28.26695 68.570659-33.97119 95.09289a15.821129 15.821129 0 1 0 30.931489 6.652988c4.619891-21.47904 21.229309-68.69722 30.930359-86.80773a15.821129 15.821129 0 0 0-11.059536-23.24297z" /><path stroke-linecap="butt" stroke-linejoin="round" stroke="none" fill="rgb(255,255,255)" d="m65.054099 7.830899c-3.073826 53.37103-23.83509 98.66595-99.89652 118.7178c10.457585 5.214498 22.277949 8.157243 34.84242 8.157243c43.125319 0 77.603879-34.47856 77.603879-77.60388c0-13.58938-4.59119-30.12128-12.54865-49.27026z" /><path stroke-linecap="butt" stroke-linejoin="round" stroke-width="15" stroke-opacity="1" stroke="rgb(255,147,216)" fill="none" d="m0-157.07c-52.7032 89.90619-100.005 158.9006-100.005 214.135c0 55.23101 44.773989 100.005 100.005 100.005s100.005-44.77399 100.005-100.005s-47.3018-124.2322-100.005-214.135z" /></g></svg></svg>